<svg xmlns="http://www.w3.org/2000/svg" viewBox="0 0 800 500" font-family="Arial, sans-serif">
  <defs>
    <style>
      .title { font-size: 16px; font-weight: bold; }
      .axis-label { font-size: 12px; }
      .tick-label { font-size: 10px; }
      .legend-text { font-size: 11px; }
      .note { font-size: 10px; fill: #666; }
      .grid { stroke: #e0e0e0; stroke-width: 1; }
      .axis { stroke: black; stroke-width: 2; }
      .c3d8-line { fill: none; stroke: #1976D2; stroke-width: 2.5; }
      .c3d8-point { fill: #1976D2; }
      .c3d20-line { fill: none; stroke: #D32F2F; stroke-width: 2.5; }
      .c3d20-point { fill: #D32F2F; }
    </style>
  </defs>
  <rect width="800" height="500" fill="white"/>
  <text x="400" y="30" text-anchor="middle" class="title">C3D8 vs C3D20: DOF vs Solve Time</text>
  <line x1="70" y1="70" x2="70" y2="430" class="grid"/>
  <line x1="202" y1="70" x2="202" y2="430" class="grid"/>
  <line x1="334" y1="70" x2="334" y2="430" class="grid"/>
  <line x1="466" y1="70" x2="466" y2="430" class="grid"/>
  <line x1="598" y1="70" x2="598" y2="430" class="grid"/>
  <line x1="730" y1="70" x2="730" y2="430" class="grid"/>
  <line x1="70" y1="70" x2="730" y2="70" class="grid"/>
  <line x1="70" y1="160" x2="730" y2="160" class="grid"/>
  <line x1="70" y1="250" x2="730" y2="250" class="grid"/>
  <line x1="70" y1="340" x2="730" y2="340" class="grid"/>
  <line x1="70" y1="430" x2="730" y2="430" class="grid"/>
  <line x1="70" y1="430" x2="730" y2="430" class="axis"/>
  <line x1="70" y1="70" x2="70" y2="430" class="axis"/>
  <text x="400" y="485" text-anchor="middle" class="axis-label">Degrees of Freedom (log scale)</text>
  <text x="18" y="250" text-anchor="middle" class="axis-label" transform="rotate(-90, 18, 250)">Solve Time (ms, log scale)</text>
  <text x="247" y="445" text-anchor="middle" class="tick-label">100</text>
  <text x="325" y="445" text-anchor="middle" class="tick-label">300</text>
  <text x="410" y="445" text-anchor="middle" class="tick-label">1k</text>
  <text x="488" y="445" text-anchor="middle" class="tick-label">3k</text>
  <text x="573" y="445" text-anchor="middle" class="tick-label">10k</text>
  <text x="651" y="445" text-anchor="middle" class="tick-label">30k</text>
  <text x="65" y="407" text-anchor="end" class="tick-label">0.1ms</text>
  <text x="65" y="370" text-anchor="end" class="tick-label">0.3ms</text>
  <text x="65" y="330" text-anchor="end" class="tick-label">1ms</text>
  <text x="65" y="294" text-anchor="end" class="tick-label">3ms</text>
  <text x="65" y="254" text-anchor="end" class="tick-label">10ms</text>
  <text x="65" y="217" text-anchor="end" class="tick-label">30ms</text>
  <text x="65" y="177" text-anchor="end" class="tick-label">100ms</text>
  <text x="65" y="141" text-anchor="end" class="tick-label">300ms</text>
  <text x="65" y="101" text-anchor="end" class="tick-label">1s</text>
  <path d="M 146.2 360.4 L 174.8 376.7 L 211.0 362.4 L 252.6 347.0 L 297.6 331.4 L 344.5 314.0 L 355.0 294.8 L 401.9 273.4 L 449.9 251.5 L 522.2 199.3 L 570.7 173.3 L 653.8 110.0" class="c3d8-line"/>
  <circle cx="146.2" cy="360.4" r="6" class="c3d8-point"/>
  <circle cx="174.8" cy="376.7" r="6" class="c3d8-point"/>
  <circle cx="211.0" cy="362.4" r="6" class="c3d8-point"/>
  <circle cx="252.6" cy="347.0" r="6" class="c3d8-point"/>
  <circle cx="297.6" cy="331.4" r="6" class="c3d8-point"/>
  <circle cx="344.5" cy="314.0" r="6" class="c3d8-point"/>
  <circle cx="355.0" cy="294.8" r="6" class="c3d8-point"/>
  <circle cx="401.9" cy="273.4" r="6" class="c3d8-point"/>
  <circle cx="449.9" cy="251.5" r="6" class="c3d8-point"/>
  <circle cx="522.2" cy="199.3" r="6" class="c3d8-point"/>
  <circle cx="570.7" cy="173.3" r="6" class="c3d8-point"/>
  <circle cx="653.8" cy="110.0" r="6" class="c3d8-point"/>
  <path d="M 211.0 348.0 L 244.2 337.4 L 283.8 320.8 L 327.7 298.1 L 373.9 276.6 L 438.9 231.4 L 486.4 205.8 L 534.7 177.0 L 564.2 144.5 L 612.5 118.5" class="c3d20-line"/>
  <rect x="206.0" y="343.0" width="10" height="10" class="c3d20-point"/>
  <rect x="239.2" y="332.4" width="10" height="10" class="c3d20-point"/>
  <rect x="278.8" y="315.8" width="10" height="10" class="c3d20-point"/>
  <rect x="322.7" y="293.1" width="10" height="10" class="c3d20-point"/>
  <rect x="368.9" y="271.6" width="10" height="10" class="c3d20-point"/>
  <rect x="433.9" y="226.4" width="10" height="10" class="c3d20-point"/>
  <rect x="481.4" y="200.8" width="10" height="10" class="c3d20-point"/>
  <rect x="529.7" y="172.0" width="10" height="10" class="c3d20-point"/>
  <rect x="559.2" y="139.5" width="10" height="10" class="c3d20-point"/>
  <rect x="607.5" y="113.5" width="10" height="10" class="c3d20-point"/>
  <rect x="85" y="85" width="150" height="55" fill="white" stroke="#ccc" rx="3"/>
  <circle cx="100" cy="103" r="5" class="c3d8-point"/>
  <text x="113" y="107" class="legend-text">C3D8 (8-node linear)</text>
  <rect x="96" y="121" width="8" height="8" class="c3d20-point"/>
  <text x="113" y="129" class="legend-text">C3D20 (20-node quad)</text>
</svg>
